<svg width="20" height="21" viewBox="0 0 20 21" fill="none" xmlns="http://www.w3.org/2000/svg">
<path d="M14.55 11.655C15.3 11.655 15.96 11.245 16.3 10.625L19.88 4.13503C20.25 3.47503 19.77 2.65503 19.01 2.65503H4.21L3.27 0.655029H0V2.65503H2L5.6 10.245L4.25 12.685C3.52 14.025 4.48 15.655 6 15.655H18V13.655H6L7.1 11.655H14.55ZM5.16 4.65503H17.31L14.55 9.65503H7.53L5.16 4.65503ZM6 16.655C4.9 16.655 4.01 17.555 4.01 18.655C4.01 19.755 4.9 20.655 6 20.655C7.1 20.655 8 19.755 8 18.655C8 17.555 7.1 16.655 6 16.655ZM16 16.655C14.9 16.655 14.01 17.555 14.01 18.655C14.01 19.755 14.9 20.655 16 20.655C17.1 20.655 18 19.755 18 18.655C18 17.555 17.1 16.655 16 16.655Z" fill="#4318FF"/>
</svg>
