<svg width="20" height="20" viewBox="0 0 20 20" fill="none" xmlns="http://www.w3.org/2000/svg">
<path d="M13.6209 20C17.1081 20 19.9409 17.1583 19.9609 13.6904L20 8.58517L19.9409 8.30661L19.7735 7.95792L19.49 7.73748C19.1222 7.4499 17.2574 7.75752 16.7553 7.3016C16.3996 6.97695 16.3445 6.38978 16.2363 5.59218C16.0359 4.0491 15.9096 3.96894 15.6671 3.44589C14.7903 1.58818 12.4074 0.193387 10.7721 0H6.33799C2.85084 0 0 2.84469 0 6.31964V13.6904C0 17.1583 2.85084 19.999 6.33799 19.999L13.6209 20ZM6.41916 5.16132H9.93336C10.6047 5.16132 11.1479 5.70641 11.1479 6.36874C11.1479 7.02705 10.6047 7.57715 9.93336 7.57715H6.41916C5.74778 7.57715 5.20667 7.02705 5.20667 6.36874C5.20667 5.70641 5.74778 5.16132 6.41916 5.16132ZM5.20667 13.5962C5.20667 12.9349 5.74778 12.3938 6.41916 12.3938H13.5608C14.2272 12.3938 14.7683 12.9349 14.7683 13.5962C14.7683 14.2495 14.2272 14.7986 13.5608 14.7986H6.41916C6.09932 14.7986 5.79243 14.6722 5.56533 14.447C5.33823 14.2218 5.20932 13.916 5.20667 13.5962Z" fill="#4318FF"/>
</svg>
