<svg width="179" height="20" viewBox="0 0 179 20" fill="none" xmlns="http://www.w3.org/2000/svg">
<path d="M16.42 0.747999V19H11.974V11.486H5.058V19H0.612V0.747999H5.058V7.898H11.974V0.747999H16.42ZM28.2616 19.182C26.5456 19.182 24.9682 18.7833 23.5296 17.986C22.1082 17.1887 20.9729 16.0793 20.1236 14.658C19.2916 13.2193 18.8756 11.6073 18.8756 9.822C18.8756 8.03667 19.2916 6.43333 20.1236 5.012C20.9729 3.59067 22.1082 2.48133 23.5296 1.684C24.9682 0.886666 26.5456 0.488 28.2616 0.488C29.9776 0.488 31.5462 0.886666 32.9676 1.684C34.4062 2.48133 35.5329 3.59067 36.3476 5.012C37.1796 6.43333 37.5956 8.03667 37.5956 9.822C37.5956 11.6073 37.1796 13.2193 36.3476 14.658C35.5156 16.0793 34.3889 17.1887 32.9676 17.986C31.5462 18.7833 29.9776 19.182 28.2616 19.182ZM28.2616 15.126C29.7176 15.126 30.8789 14.6407 31.7456 13.67C32.6296 12.6993 33.0716 11.4167 33.0716 9.822C33.0716 8.21 32.6296 6.92733 31.7456 5.974C30.8789 5.00333 29.7176 4.518 28.2616 4.518C26.7882 4.518 25.6096 4.99467 24.7256 5.948C23.8589 6.90133 23.4256 8.19267 23.4256 9.822C23.4256 11.434 23.8589 12.7253 24.7256 13.696C25.6096 14.6493 26.7882 15.126 28.2616 15.126ZM49.377 19L45.581 12.11H44.515V19H40.069V0.747999H47.531C48.9697 0.747999 50.1917 0.999333 51.197 1.502C52.2197 2.00467 52.9824 2.698 53.485 3.582C53.9877 4.44867 54.239 5.41933 54.239 6.494C54.239 7.70733 53.8924 8.79067 53.199 9.744C52.523 10.6973 51.5177 11.3733 50.183 11.772L54.395 19H49.377ZM44.515 8.964H47.271C48.0857 8.964 48.6924 8.76467 49.091 8.366C49.507 7.96733 49.715 7.404 49.715 6.676C49.715 5.98267 49.507 5.43667 49.091 5.038C48.6924 4.63933 48.0857 4.44 47.271 4.44H44.515V8.964ZM61.476 0.747999V19H57.03V0.747999H61.476ZM69.4299 15.36H77.2819V19H64.3859V15.62L72.1859 4.388H64.3859V0.747999H77.2819V4.128L69.4299 15.36ZM88.8182 19.182C87.1022 19.182 85.5249 18.7833 84.0862 17.986C82.6649 17.1887 81.5296 16.0793 80.6802 14.658C79.8482 13.2193 79.4322 11.6073 79.4322 9.822C79.4322 8.03667 79.8482 6.43333 80.6802 5.012C81.5296 3.59067 82.6649 2.48133 84.0862 1.684C85.5249 0.886666 87.1022 0.488 88.8182 0.488C90.5342 0.488 92.1029 0.886666 93.5242 1.684C94.9629 2.48133 96.0896 3.59067 96.9042 5.012C97.7362 6.43333 98.1522 8.03667 98.1522 9.822C98.1522 11.6073 97.7362 13.2193 96.9042 14.658C96.0722 16.0793 94.9456 17.1887 93.5242 17.986C92.1029 18.7833 90.5342 19.182 88.8182 19.182ZM88.8182 15.126C90.2742 15.126 91.4356 14.6407 92.3022 13.67C93.1862 12.6993 93.6282 11.4167 93.6282 9.822C93.6282 8.21 93.1862 6.92733 92.3022 5.974C91.4356 5.00333 90.2742 4.518 88.8182 4.518C87.3449 4.518 86.1662 4.99467 85.2822 5.948C84.4156 6.90133 83.9822 8.19267 83.9822 9.822C83.9822 11.434 84.4156 12.7253 85.2822 13.696C86.1662 14.6493 87.3449 15.126 88.8182 15.126ZM116.954 19H112.508L105.072 7.742V19H100.626V0.747999H105.072L112.508 12.058V0.747999H116.954V19ZM136.32 0.877999V2.802H128.442V8.912H134.838V10.836H128.442V19H126.076V0.877999H136.32ZM148.72 19L144.404 11.59H141.544V19H139.178V0.877999H145.028C146.397 0.877999 147.55 1.112 148.486 1.58C149.439 2.048 150.15 2.68067 150.618 3.478C151.086 4.27533 151.32 5.18533 151.32 6.208C151.32 7.456 150.956 8.55667 150.228 9.51C149.517 10.4633 148.442 11.096 147.004 11.408L151.554 19H148.72ZM141.544 9.692H145.028C146.31 9.692 147.272 9.38 147.914 8.756C148.555 8.11467 148.876 7.26533 148.876 6.208C148.876 5.13333 148.555 4.30133 147.914 3.712C147.29 3.12267 146.328 2.828 145.028 2.828H141.544V9.692ZM157.362 2.802V8.86H163.966V10.81H157.362V17.05H164.746V19H154.996V0.852H164.746V2.802H157.362ZM170.692 2.802V8.86H177.296V10.81H170.692V17.05H178.076V19H168.326V0.852H178.076V2.802H170.692Z" fill="white"/>
</svg>
