<svg width="178" height="20" viewBox="0 0 178 20" fill="none" xmlns="http://www.w3.org/2000/svg">
<path d="M15.92 0.747999V19H11.474V11.486H4.558V19H0.112V0.747999H4.558V7.898H11.474V0.747999H15.92ZM27.7616 19.182C26.0456 19.182 24.4682 18.7833 23.0296 17.986C21.6082 17.1887 20.4729 16.0793 19.6236 14.658C18.7916 13.2193 18.3756 11.6073 18.3756 9.822C18.3756 8.03667 18.7916 6.43333 19.6236 5.012C20.4729 3.59067 21.6082 2.48133 23.0296 1.684C24.4682 0.886666 26.0456 0.488 27.7616 0.488C29.4776 0.488 31.0462 0.886666 32.4676 1.684C33.9062 2.48133 35.0329 3.59067 35.8476 5.012C36.6796 6.43333 37.0956 8.03667 37.0956 9.822C37.0956 11.6073 36.6796 13.2193 35.8476 14.658C35.0156 16.0793 33.8889 17.1887 32.4676 17.986C31.0462 18.7833 29.4776 19.182 27.7616 19.182ZM27.7616 15.126C29.2176 15.126 30.3789 14.6407 31.2456 13.67C32.1296 12.6993 32.5716 11.4167 32.5716 9.822C32.5716 8.21 32.1296 6.92733 31.2456 5.974C30.3789 5.00333 29.2176 4.518 27.7616 4.518C26.2882 4.518 25.1096 4.99467 24.2256 5.948C23.3589 6.90133 22.9256 8.19267 22.9256 9.822C22.9256 11.434 23.3589 12.7253 24.2256 13.696C25.1096 14.6493 26.2882 15.126 27.7616 15.126ZM48.877 19L45.081 12.11H44.015V19H39.569V0.747999H47.031C48.4697 0.747999 49.6917 0.999333 50.697 1.502C51.7197 2.00467 52.4824 2.698 52.985 3.582C53.4877 4.44867 53.739 5.41933 53.739 6.494C53.739 7.70733 53.3924 8.79067 52.699 9.744C52.023 10.6973 51.0177 11.3733 49.683 11.772L53.895 19H48.877ZM44.015 8.964H46.771C47.5857 8.964 48.1924 8.76467 48.591 8.366C49.007 7.96733 49.215 7.404 49.215 6.676C49.215 5.98267 49.007 5.43667 48.591 5.038C48.1924 4.63933 47.5857 4.44 46.771 4.44H44.015V8.964ZM60.976 0.747999V19H56.53V0.747999H60.976ZM68.9299 15.36H76.7819V19H63.8859V15.62L71.6859 4.388H63.8859V0.747999H76.7819V4.128L68.9299 15.36ZM88.3182 19.182C86.6022 19.182 85.0249 18.7833 83.5862 17.986C82.1649 17.1887 81.0296 16.0793 80.1802 14.658C79.3482 13.2193 78.9322 11.6073 78.9322 9.822C78.9322 8.03667 79.3482 6.43333 80.1802 5.012C81.0296 3.59067 82.1649 2.48133 83.5862 1.684C85.0249 0.886666 86.6022 0.488 88.3182 0.488C90.0342 0.488 91.6029 0.886666 93.0242 1.684C94.4629 2.48133 95.5896 3.59067 96.4042 5.012C97.2362 6.43333 97.6522 8.03667 97.6522 9.822C97.6522 11.6073 97.2362 13.2193 96.4042 14.658C95.5722 16.0793 94.4456 17.1887 93.0242 17.986C91.6029 18.7833 90.0342 19.182 88.3182 19.182ZM88.3182 15.126C89.7742 15.126 90.9356 14.6407 91.8022 13.67C92.6862 12.6993 93.1282 11.4167 93.1282 9.822C93.1282 8.21 92.6862 6.92733 91.8022 5.974C90.9356 5.00333 89.7742 4.518 88.3182 4.518C86.8449 4.518 85.6662 4.99467 84.7822 5.948C83.9156 6.90133 83.4822 8.19267 83.4822 9.822C83.4822 11.434 83.9156 12.7253 84.7822 13.696C85.6662 14.6493 86.8449 15.126 88.3182 15.126ZM116.454 19H112.008L104.572 7.742V19H100.126V0.747999H104.572L112.008 12.058V0.747999H116.454V19ZM135.82 0.877999V2.802H127.942V8.912H134.338V10.836H127.942V19H125.576V0.877999H135.82ZM148.22 19L143.904 11.59H141.044V19H138.678V0.877999H144.528C145.897 0.877999 147.05 1.112 147.986 1.58C148.939 2.048 149.65 2.68067 150.118 3.478C150.586 4.27533 150.82 5.18533 150.82 6.208C150.82 7.456 150.456 8.55667 149.728 9.51C149.017 10.4633 147.942 11.096 146.504 11.408L151.054 19H148.22ZM141.044 9.692H144.528C145.81 9.692 146.772 9.38 147.414 8.756C148.055 8.11467 148.376 7.26533 148.376 6.208C148.376 5.13333 148.055 4.30133 147.414 3.712C146.79 3.12267 145.828 2.828 144.528 2.828H141.044V9.692ZM156.862 2.802V8.86H163.466V10.81H156.862V17.05H164.246V19H154.496V0.852H164.246V2.802H156.862ZM170.192 2.802V8.86H176.796V10.81H170.192V17.05H177.576V19H167.826V0.852H177.576V2.802H170.192Z" fill="#2B3674"/>
</svg>
