<svg width="18" height="19" viewBox="0 0 18 19" fill="none" xmlns="http://www.w3.org/2000/svg">
<path d="M1 10.655H7C7.55 10.655 8 10.205 8 9.65503V1.65503C8 1.10503 7.55 0.655029 7 0.655029H1C0.45 0.655029 0 1.10503 0 1.65503V9.65503C0 10.205 0.45 10.655 1 10.655ZM1 18.655H7C7.55 18.655 8 18.205 8 17.655V13.655C8 13.105 7.55 12.655 7 12.655H1C0.45 12.655 0 13.105 0 13.655V17.655C0 18.205 0.45 18.655 1 18.655ZM11 18.655H17C17.55 18.655 18 18.205 18 17.655V9.65503C18 9.10503 17.55 8.65503 17 8.65503H11C10.45 8.65503 10 9.10503 10 9.65503V17.655C10 18.205 10.45 18.655 11 18.655ZM10 1.65503V5.65503C10 6.20503 10.45 6.65503 11 6.65503H17C17.55 6.65503 18 6.20503 18 5.65503V1.65503C18 1.10503 17.55 0.655029 17 0.655029H11C10.45 0.655029 10 1.10503 10 1.65503Z" fill="#A3AED0"/>
</svg>
