<svg width="38" height="39" viewBox="0 0 38 39" fill="none" xmlns="http://www.w3.org/2000/svg">
<mask id="path-1-inside-1_253_3" fill="white">
<path d="M16.483 3.19315C13.0127 3.7288 9.80385 5.35755 7.32303 7.84252C4.84221 10.3275 3.21882 13.5391 2.68896 17.0102C2.15911 20.4813 2.75042 24.031 4.37689 27.1429C6.00337 30.2549 8.58019 32.7668 11.7326 34.3133C14.885 35.8599 18.4486 36.3605 21.9051 35.7423C25.3616 35.1241 28.5307 33.4193 30.9516 30.8759C33.3725 28.3325 34.9188 25.0831 35.3658 21.6003C35.8128 18.1176 35.137 14.583 33.4368 11.5107L30.9205 12.9033C32.3244 15.44 32.8823 18.3585 32.5133 21.2343C32.1442 24.11 30.8674 26.793 28.8684 28.8931C26.8695 30.9932 24.2528 32.4008 21.3987 32.9113C18.5447 33.4217 15.6022 33.0084 12.9993 31.7314C10.3964 30.4544 8.26867 28.3803 6.92569 25.8108C5.5827 23.2413 5.09446 20.3103 5.53196 17.4442C5.96946 14.5781 7.30989 11.9262 9.35831 9.87441C11.4067 7.82257 14.0563 6.47771 16.9217 6.03542L16.483 3.19315Z"/>
</mask>
<path d="M16.483 3.19315C13.0127 3.7288 9.80385 5.35755 7.32303 7.84252C4.84221 10.3275 3.21882 13.5391 2.68896 17.0102C2.15911 20.4813 2.75042 24.031 4.37689 27.1429C6.00337 30.2549 8.58019 32.7668 11.7326 34.3133C14.885 35.8599 18.4486 36.3605 21.9051 35.7423C25.3616 35.1241 28.5307 33.4193 30.9516 30.8759C33.3725 28.3325 34.9188 25.0831 35.3658 21.6003C35.8128 18.1176 35.137 14.583 33.4368 11.5107L30.9205 12.9033C32.3244 15.44 32.8823 18.3585 32.5133 21.2343C32.1442 24.11 30.8674 26.793 28.8684 28.8931C26.8695 30.9932 24.2528 32.4008 21.3987 32.9113C18.5447 33.4217 15.6022 33.0084 12.9993 31.7314C10.3964 30.4544 8.26867 28.3803 6.92569 25.8108C5.5827 23.2413 5.09446 20.3103 5.53196 17.4442C5.96946 14.5781 7.30989 11.9262 9.35831 9.87441C11.4067 7.82257 14.0563 6.47771 16.9217 6.03542L16.483 3.19315Z" stroke="#4318FF" stroke-opacity="0.3" stroke-width="6" mask="url(#path-1-inside-1_253_3)"/>
<mask id="path-2-inside-2_253_3" fill="white">
<path d="M35.5 19.5C35.5 16.2366 34.5323 13.0465 32.7192 10.3331C30.9062 7.61968 28.3293 5.50483 25.3143 4.25599C22.2993 3.00714 18.9817 2.68039 15.781 3.31704C12.5803 3.9537 9.6403 5.52517 7.33274 7.83274C5.02517 10.1403 3.4537 13.0803 2.81704 16.281C2.18039 19.4817 2.50714 22.7993 3.75599 25.8143C5.00483 28.8293 7.11968 31.4062 9.83309 33.2192C12.5465 35.0323 15.7366 36 19 36L19 33.1241C16.3054 33.1241 13.6713 32.325 11.4309 30.828C9.1904 29.331 7.44417 27.2032 6.413 24.7137C5.38182 22.2242 5.11202 19.4849 5.63771 16.8421C6.1634 14.1993 7.46097 11.7717 9.36633 9.86633C11.2717 7.96097 13.6993 6.6634 16.3421 6.13771C18.9849 5.61202 21.7242 5.88182 24.2137 6.913C26.7032 7.94417 28.831 9.6904 30.328 11.9309C31.825 14.1713 32.6241 16.8054 32.6241 19.5H35.5Z"/>
</mask>
<path d="M35.5 19.5C35.5 16.2366 34.5323 13.0465 32.7192 10.3331C30.9062 7.61968 28.3293 5.50483 25.3143 4.25599C22.2993 3.00714 18.9817 2.68039 15.781 3.31704C12.5803 3.9537 9.6403 5.52517 7.33274 7.83274C5.02517 10.1403 3.4537 13.0803 2.81704 16.281C2.18039 19.4817 2.50714 22.7993 3.75599 25.8143C5.00483 28.8293 7.11968 31.4062 9.83309 33.2192C12.5465 35.0323 15.7366 36 19 36L19 33.1241C16.3054 33.1241 13.6713 32.325 11.4309 30.828C9.1904 29.331 7.44417 27.2032 6.413 24.7137C5.38182 22.2242 5.11202 19.4849 5.63771 16.8421C6.1634 14.1993 7.46097 11.7717 9.36633 9.86633C11.2717 7.96097 13.6993 6.6634 16.3421 6.13771C18.9849 5.61202 21.7242 5.88182 24.2137 6.913C26.7032 7.94417 28.831 9.6904 30.328 11.9309C31.825 14.1713 32.6241 16.8054 32.6241 19.5H35.5Z" stroke="#4318FF" stroke-width="6" mask="url(#path-2-inside-2_253_3)"/>
</svg>
