<svg width="18" height="18" viewBox="0 0 18 18" fill="none" xmlns="http://www.w3.org/2000/svg">
<path d="M2.46671 5.73334H2.70004C3.59837 5.73334 4.33337 6.46834 4.33337 7.36668V15.5333C4.33337 16.4317 3.59837 17.1667 2.70004 17.1667H2.46671C1.56837 17.1667 0.833374 16.4317 0.833374 15.5333V7.36668C0.833374 6.46834 1.56837 5.73334 2.46671 5.73334V5.73334ZM9.00004 0.833344C9.89837 0.833344 10.6334 1.56834 10.6334 2.46668V15.5333C10.6334 16.4317 9.89837 17.1667 9.00004 17.1667C8.10171 17.1667 7.36671 16.4317 7.36671 15.5333V2.46668C7.36671 1.56834 8.10171 0.833344 9.00004 0.833344ZM15.5334 10.1667C16.4317 10.1667 17.1667 10.9017 17.1667 11.8V15.5333C17.1667 16.4317 16.4317 17.1667 15.5334 17.1667C14.635 17.1667 13.9 16.4317 13.9 15.5333V11.8C13.9 10.9017 14.635 10.1667 15.5334 10.1667V10.1667Z" fill="#A3AED0"/>
</svg>
