<svg width="18" height="17" viewBox="0 0 18 17" fill="none" xmlns="http://www.w3.org/2000/svg">
<path d="M2.46683 5.3884H2.70016C3.5985 5.3884 4.3335 6.1234 4.3335 7.02174V15.1884C4.3335 16.0867 3.5985 16.8217 2.70016 16.8217H2.46683C1.5685 16.8217 0.833496 16.0867 0.833496 15.1884V7.02174C0.833496 6.1234 1.5685 5.3884 2.46683 5.3884ZM9.00016 0.488403C9.8985 0.488403 10.6335 1.2234 10.6335 2.12174V15.1884C10.6335 16.0867 9.8985 16.8217 9.00016 16.8217C8.10183 16.8217 7.36683 16.0867 7.36683 15.1884V2.12174C7.36683 1.2234 8.10183 0.488403 9.00016 0.488403ZM15.5335 9.82174C16.4318 9.82174 17.1668 10.5567 17.1668 11.4551V15.1884C17.1668 16.0867 16.4318 16.8217 15.5335 16.8217C14.6352 16.8217 13.9002 16.0867 13.9002 15.1884V11.4551C13.9002 10.5567 14.6352 9.82174 15.5335 9.82174Z" fill="#4318FF"/>
</svg>
