<svg width="150" height="151" viewBox="0 0 150 151" fill="none" xmlns="http://www.w3.org/2000/svg">
<path opacity="0.4" d="M92.4375 25.5H57.5625C29.9375 25.5 29.9375 40.1875 29.9375 53.125V76.8125C29.9375 78.1875 30.5625 79.4375 31.625 80.25C32.6875 81.0625 34.125 81.375 35.4375 81C38.25 80.25 41.75 79.875 45.9375 79.875C50.125 79.875 51 80.375 53.5 82.25L59.1875 88.25C63.25 92.625 69.0625 95.125 75.0625 95.125C81.0625 95.125 86.8125 92.625 90.9375 88.25L96.625 82.25C99.125 80.375 100 79.875 104.188 79.875C108.375 79.875 111.875 80.25 114.688 81C116 81.375 117.375 81.0625 118.5 80.25C119.562 79.4375 120.187 78.125 120.187 76.8125V53.125C120.062 40.1875 120.063 25.5 92.4375 25.5Z" fill="#5856D6"/>
<path d="M89.2188 43C87.5938 41.375 84.9063 41.375 83.2813 43L79.2188 47.0625V17.1875C79.2188 14.875 77.2813 13 74.9688 13C72.6563 13 70.7188 14.875 70.7188 17.1875V47L66.7188 43C65.0938 41.375 62.4062 41.375 60.7812 43C59.1563 44.625 59.1563 47.3125 60.7812 48.9375L72.0313 60.1875C72.0938 60.25 72.0938 60.25 72.1563 60.25C72.5313 60.5625 72.9063 60.875 73.4063 61.0625C73.9063 61.25 74.4688 61.375 75.0313 61.375C75.5938 61.375 76.0938 61.25 76.6563 61.0625C77.1563 60.875 77.6563 60.5625 78.0313 60.125L89.2813 48.875C90.8438 47.3125 90.8438 44.625 89.2188 43Z" fill="#5856D6"/>
<path d="M116.813 72.5625C113.25 71.625 109.062 71.125 104.062 71.125C97.125 71.125 94.5625 72.8125 91 75.5C90.8125 75.625 90.625 75.8125 90.4375 76L84.5 82.3125C79.5 87.5625 70.5 87.625 65.5 82.25L59.5625 76C59.375 75.8125 59.1875 75.625 59 75.5C55.4375 72.8125 52.875 71.125 45.9375 71.125C40.9375 71.125 36.75 71.625 33.1875 72.5625C18.3125 76.5625 18.3125 88.375 18.3125 98.75V104.562C18.3125 120.25 18.3125 138 51.75 138H98.25C120.437 138 131.687 126.75 131.687 104.562V98.75C131.687 88.375 131.688 76.5625 116.813 72.5625ZM89.5625 115.5H60.4375C58.0625 115.5 56.125 113.563 56.125 111.125C56.125 108.688 58.0625 106.75 60.4375 106.75H89.5625C91.9375 106.75 93.875 108.688 93.875 111.125C93.875 113.563 91.9375 115.5 89.5625 115.5Z" fill="#5856D6"/>
<path opacity="0.4" d="M93.875 111.125C93.875 113.563 91.9375 115.5 89.5625 115.5H60.4375C58.0625 115.5 56.125 113.563 56.125 111.125C56.125 108.688 58.0625 106.75 60.4375 106.75H89.5625C91.9375 106.75 93.875 108.688 93.875 111.125Z" fill="#5856D6"/>
</svg>
