<svg width="39" height="39" viewBox="0 0 39 39" fill="none" xmlns="http://www.w3.org/2000/svg">
<mask id="path-1-inside-1_251_9" fill="white">
<path d="M16.983 3.19315C13.5127 3.7288 10.3038 5.35755 7.82303 7.84252C5.34221 10.3275 3.71882 13.5391 3.18896 17.0102C2.65911 20.4813 3.25042 24.031 4.87689 27.1429C6.50337 30.2549 9.08019 32.7668 12.2326 34.3133C15.385 35.8599 18.9486 36.3605 22.4051 35.7423C25.8616 35.1241 29.0307 33.4193 31.4516 30.8759C33.8725 28.3325 35.4188 25.0831 35.8658 21.6003C36.3128 18.1176 35.637 14.583 33.9368 11.5107L31.4205 12.9033C32.8244 15.44 33.3823 18.3585 33.0133 21.2343C32.6442 24.11 31.3674 26.793 29.3684 28.8931C27.3695 30.9932 24.7528 32.4008 21.8987 32.9113C19.0447 33.4217 16.1022 33.0084 13.4993 31.7314C10.8964 30.4544 8.76867 28.3803 7.42569 25.8108C6.0827 23.2413 5.59446 20.3103 6.03196 17.4442C6.46946 14.5781 7.80989 11.9262 9.85831 9.87441C11.9067 7.82257 14.5563 6.47771 17.4217 6.03542L16.983 3.19315Z"/>
</mask>
<path d="M16.983 3.19315C13.5127 3.7288 10.3038 5.35755 7.82303 7.84252C5.34221 10.3275 3.71882 13.5391 3.18896 17.0102C2.65911 20.4813 3.25042 24.031 4.87689 27.1429C6.50337 30.2549 9.08019 32.7668 12.2326 34.3133C15.385 35.8599 18.9486 36.3605 22.4051 35.7423C25.8616 35.1241 29.0307 33.4193 31.4516 30.8759C33.8725 28.3325 35.4188 25.0831 35.8658 21.6003C36.3128 18.1176 35.637 14.583 33.9368 11.5107L31.4205 12.9033C32.8244 15.44 33.3823 18.3585 33.0133 21.2343C32.6442 24.11 31.3674 26.793 29.3684 28.8931C27.3695 30.9932 24.7528 32.4008 21.8987 32.9113C19.0447 33.4217 16.1022 33.0084 13.4993 31.7314C10.8964 30.4544 8.76867 28.3803 7.42569 25.8108C6.0827 23.2413 5.59446 20.3103 6.03196 17.4442C6.46946 14.5781 7.80989 11.9262 9.85831 9.87441C11.9067 7.82257 14.5563 6.47771 17.4217 6.03542L16.983 3.19315Z" stroke="white" stroke-opacity="0.5" stroke-width="6" mask="url(#path-1-inside-1_251_9)"/>
<mask id="path-2-inside-2_251_9" fill="white">
<path d="M36 19.5C36 16.2366 35.0323 13.0465 33.2192 10.3331C31.4062 7.61968 28.8293 5.50483 25.8143 4.25599C22.7993 3.00714 19.4817 2.68039 16.281 3.31704C13.0803 3.9537 10.1403 5.52517 7.83274 7.83274C5.52517 10.1403 3.9537 13.0803 3.31704 16.281C2.68039 19.4817 3.00714 22.7993 4.25599 25.8143C5.50483 28.8293 7.61968 31.4062 10.3331 33.2192C13.0465 35.0323 16.2366 36 19.5 36L19.5 33.1241C16.8054 33.1241 14.1713 32.325 11.9309 30.828C9.6904 29.331 7.94417 27.2032 6.913 24.7137C5.88182 22.2242 5.61202 19.4849 6.13771 16.8421C6.6634 14.1993 7.96097 11.7717 9.86633 9.86633C11.7717 7.96097 14.1993 6.6634 16.8421 6.13771C19.4849 5.61202 22.2242 5.88182 24.7137 6.913C27.2032 7.94417 29.331 9.6904 30.828 11.9309C32.325 14.1713 33.1241 16.8054 33.1241 19.5H36Z"/>
</mask>
<path d="M36 19.5C36 16.2366 35.0323 13.0465 33.2192 10.3331C31.4062 7.61968 28.8293 5.50483 25.8143 4.25599C22.7993 3.00714 19.4817 2.68039 16.281 3.31704C13.0803 3.9537 10.1403 5.52517 7.83274 7.83274C5.52517 10.1403 3.9537 13.0803 3.31704 16.281C2.68039 19.4817 3.00714 22.7993 4.25599 25.8143C5.50483 28.8293 7.61968 31.4062 10.3331 33.2192C13.0465 35.0323 16.2366 36 19.5 36L19.5 33.1241C16.8054 33.1241 14.1713 32.325 11.9309 30.828C9.6904 29.331 7.94417 27.2032 6.913 24.7137C5.88182 22.2242 5.61202 19.4849 6.13771 16.8421C6.6634 14.1993 7.96097 11.7717 9.86633 9.86633C11.7717 7.96097 14.1993 6.6634 16.8421 6.13771C19.4849 5.61202 22.2242 5.88182 24.7137 6.913C27.2032 7.94417 29.331 9.6904 30.828 11.9309C32.325 14.1713 33.1241 16.8054 33.1241 19.5H36Z" stroke="white" stroke-width="6" mask="url(#path-2-inside-2_251_9)"/>
</svg>
