<svg width="174" height="262" viewBox="0 0 174 262" fill="none" xmlns="http://www.w3.org/2000/svg">
<path d="M148.001 60.0001C153.201 94.4001 167.501 113.333 174.001 118.5V262.5C119 262.833 8.60017 263.3 7.00017 262.5C5.40017 261.7 5.3335 257.833 5.50017 256C6.00017 254 7.00017 249.9 7.00017 249.5C7.00017 249 5.00017 243 5.50017 241.5C6.00017 240 7.00017 233.5 7.00017 231C7.00017 228.5 8.00017 220 9.00017 174.5C9.80017 138.1 43.3338 118.667 60.0006 113.5C54.0006 17.1 75.8339 4.00006 87.5006 9.50009C104.501 -4.49991 141.501 17.0001 148.001 60.0001Z" stroke="white" stroke-width="10" stroke-linejoin="round"/>
</svg>
